<svg width="119" height="19" viewBox="0 0 119 19" fill="none" xmlns="http://www.w3.org/2000/svg">
<path d="M5.104 18.08C3.632 18.08 2.256 17.656 0.976 16.808L2.104 13.832C2.744 14.056 3.288 14.168 3.736 14.168C4.808 14.168 5.344 13.504 5.344 12.176V0.487999H10.504V12.176C10.504 14.016 10.024 15.464 9.064 16.52C8.104 17.56 6.784 18.08 5.104 18.08ZM19.5745 17.192C18.2305 17.192 17.0305 16.928 15.9745 16.4C14.9345 15.872 14.1185 15.144 13.5265 14.216C12.9505 13.272 12.6625 12.192 12.6625 10.976C12.6625 9.76 12.9585 8.688 13.5505 7.76C14.1425 6.816 14.9585 6.088 15.9985 5.576C17.0545 5.064 18.2545 4.808 19.5985 4.808C20.9585 4.808 22.1585 5.072 23.1985 5.6C24.2545 6.112 25.0705 6.832 25.6465 7.76C26.2225 8.688 26.5105 9.76 26.5105 10.976C26.5105 12.208 26.2145 13.296 25.6225 14.24C25.0465 15.168 24.2305 15.896 23.1745 16.424C22.1345 16.936 20.9345 17.192 19.5745 17.192ZM19.6225 13.592C20.2785 13.592 20.8145 13.352 21.2305 12.872C21.6625 12.376 21.8785 11.744 21.8785 10.976C21.8785 10.208 21.6625 9.584 21.2305 9.104C20.8145 8.608 20.2785 8.36 19.6225 8.36C18.9665 8.36 18.4225 8.608 17.9905 9.104C17.5745 9.584 17.3665 10.208 17.3665 10.976C17.3665 11.744 17.5745 12.376 17.9905 12.872C18.4225 13.352 18.9665 13.592 19.6225 13.592ZM37.3574 17.192C35.5174 17.192 34.2134 16.384 33.4454 14.768V17H28.3574V1.184L33.4454 0.439999V7.232C33.8454 6.384 34.3654 5.768 35.0054 5.384C35.6454 5 36.4214 4.808 37.3334 4.808C38.4054 4.808 39.3894 5.08 40.2854 5.624C41.1974 6.152 41.9094 6.888 42.4214 7.832C42.9494 8.776 43.2134 9.832 43.2134 11C43.2134 12.152 42.9414 13.2 42.3974 14.144C41.8694 15.088 41.1494 15.832 40.2374 16.376C39.3414 16.92 38.3814 17.192 37.3574 17.192ZM35.8214 13.4C36.4774 13.4 37.0374 13.16 37.5014 12.68C37.9654 12.2 38.1974 11.64 38.1974 11C38.1974 10.328 37.9574 9.76 37.4774 9.296C37.0134 8.832 36.4614 8.6 35.8214 8.6C35.1654 8.6 34.6054 8.832 34.1414 9.296C33.6774 9.744 33.4454 10.28 33.4454 10.904V11C33.4454 11.672 33.6774 12.24 34.1414 12.704C34.6214 13.168 35.1814 13.4 35.8214 13.4ZM51.5031 17.288C50.5111 17.288 49.5911 17.272 48.7431 17.24C47.8951 17.208 46.7351 17.136 45.2631 17.024V0.487999H53.5191C54.6871 0.487999 55.7351 0.655999 56.6631 0.991999C57.6071 1.312 58.3431 1.776 58.8711 2.384C59.3991 2.992 59.6631 3.696 59.6631 4.496C59.6631 5.488 59.4471 6.272 59.0151 6.848C58.5831 7.408 57.9271 7.8 57.0471 8.024C59.2871 8.376 60.4071 9.696 60.4071 11.984C60.4071 13.568 59.6791 14.848 58.2231 15.824C56.7831 16.8 54.5431 17.288 51.5031 17.288ZM52.5111 7.016C53.1351 7.016 53.6471 6.864 54.0471 6.56C54.4631 6.256 54.6711 5.864 54.6711 5.384C54.6711 4.248 53.9671 3.68 52.5591 3.68H50.6151V7.016H52.5111ZM52.4151 13.52C53.2951 13.52 53.9671 13.36 54.4311 13.04C54.9111 12.704 55.1511 12.24 55.1511 11.648C55.1511 11.008 54.9351 10.52 54.5031 10.184C54.0711 9.832 53.4551 9.656 52.6551 9.656H50.5911V13.448C51.3111 13.496 51.9191 13.52 52.4151 13.52ZM68.512 17.192C67.168 17.192 65.968 16.928 64.912 16.4C63.872 15.872 63.056 15.144 62.464 14.216C61.888 13.272 61.6 12.192 61.6 10.976C61.6 9.76 61.896 8.688 62.488 7.76C63.08 6.816 63.896 6.088 64.936 5.576C65.992 5.064 67.192 4.808 68.536 4.808C69.896 4.808 71.096 5.072 72.136 5.6C73.192 6.112 74.008 6.832 74.584 7.76C75.16 8.688 75.448 9.76 75.448 10.976C75.448 12.208 75.152 13.296 74.56 14.24C73.984 15.168 73.168 15.896 72.112 16.424C71.072 16.936 69.872 17.192 68.512 17.192ZM68.56 13.592C69.216 13.592 69.752 13.352 70.168 12.872C70.6 12.376 70.816 11.744 70.816 10.976C70.816 10.208 70.6 9.584 70.168 9.104C69.752 8.608 69.216 8.36 68.56 8.36C67.904 8.36 67.36 8.608 66.928 9.104C66.512 9.584 66.304 10.208 66.304 10.976C66.304 11.744 66.512 12.376 66.928 12.872C67.36 13.352 67.904 13.592 68.56 13.592ZM82.5509 17.192C81.5109 17.192 80.5349 16.92 79.6229 16.376C78.7269 15.816 78.0069 15.064 77.4629 14.12C76.9189 13.16 76.6469 12.096 76.6469 10.928C76.6469 9.776 76.9189 8.736 77.4629 7.808C78.0069 6.864 78.7349 6.128 79.6469 5.6C80.5589 5.072 81.5269 4.808 82.5509 4.808C83.3829 4.808 84.1509 5.04 84.8549 5.504C85.5749 5.968 86.1189 6.664 86.4869 7.592V4.808H91.5269V17H86.4869V14.768C85.6869 16.384 84.3749 17.192 82.5509 17.192ZM84.1109 13.4C84.7509 13.4 85.2949 13.176 85.7429 12.728C86.2069 12.264 86.4549 11.72 86.4869 11.096V10.904C86.4549 10.264 86.1989 9.72 85.7189 9.272C85.2549 8.824 84.7189 8.6 84.1109 8.6C83.4389 8.6 82.8629 8.84 82.3829 9.32C81.9189 9.784 81.6869 10.344 81.6869 11C81.6869 11.672 81.9269 12.24 82.4069 12.704C82.8869 13.168 83.4549 13.4 84.1109 13.4ZM93.9578 5.144H99.0218V7.592C99.3898 6.648 99.8858 5.952 100.51 5.504C101.15 5.04 101.894 4.808 102.742 4.808L103.438 8.72C101.918 8.72 100.798 8.888 100.078 9.224C99.3738 9.544 99.0218 10.056 99.0218 10.76V17H93.9578V5.144ZM109.925 17.192C108.837 17.192 107.845 16.904 106.949 16.328C106.069 15.752 105.373 14.992 104.861 14.048C104.349 13.088 104.093 12.072 104.093 11C104.093 9.864 104.357 8.824 104.885 7.88C105.429 6.92 106.149 6.168 107.045 5.624C107.957 5.08 108.925 4.808 109.949 4.808C110.877 4.808 111.661 5 112.301 5.384C112.957 5.768 113.485 6.384 113.885 7.232V1.184L118.949 0.439999V17H113.885V14.768C113.133 16.384 111.813 17.192 109.925 17.192ZM111.509 13.4C112.181 13.4 112.741 13.16 113.189 12.68C113.653 12.2 113.885 11.64 113.885 11V10.904C113.885 10.28 113.645 9.744 113.165 9.296C112.685 8.832 112.133 8.6 111.509 8.6C110.837 8.6 110.269 8.84 109.805 9.32C109.357 9.784 109.133 10.344 109.133 11C109.133 11.672 109.365 12.24 109.829 12.704C110.309 13.168 110.869 13.4 111.509 13.4Z" fill="#0A3D5A"/>
</svg>
